<?xml version="1.0" encoding="UTF-8"?>
<svg id="Layer_1" data-name="Layer 1" xmlns="http://www.w3.org/2000/svg" viewBox="0 0 237.6 44.83">
  <g id="Layer_1-2" data-name="Layer 1">
    <path id="Wordmark" d="M160.16,25.86c0-6,4.36-10.69,10.85-10.69,1.85,0,3.95.45,5.51,1.32v4.52h-.12c-1.6-.95-3.21-1.4-5.01-1.4-3.91,0-6,2.67-6,6.25s2.1,6.25,6,6.25c1.81,0,3.41-.45,5.01-1.4h.12v4.52c-1.56.86-3.66,1.32-5.51,1.32-6.49-.01-10.85-4.69-10.85-10.69M159.67,36.13c-.78.16-1.69.29-2.51.29-3.9,0-6-2.05-6-5.84v-15h5.14v14.63c0,1.36.66,2.01,2.06,2.01.33,0,.74-.04,1.19-.12h.12v4.03ZM156.83,10.57c0,1.64-1.32,3.04-3.04,3.04s-3-1.4-3-3.04,1.36-3,3-3c1.73-.01,3.04,1.35,3.04,3M133.9,24.66c0-3.17,1.6-5.22,4.56-5.22s4.28,1.93,4.28,5.22v11.47h5.1v-11.67c0-4.93-2.55-9.29-8.1-9.29-2.96,0-4.93,1.48-6.04,3.7v-3.29h-4.89v20.55h5.1v-11.47h-.01ZM115.3,32.15c3.66,0,5.55-2.67,5.55-6.29s-1.89-6.29-5.55-6.29-5.59,2.67-5.59,6.29,2.02,6.29,5.59,6.29M115.3,36.54c-6.45,0-10.81-4.69-10.81-10.69s4.36-10.69,10.81-10.69,10.77,4.69,10.77,10.69-4.35,10.69-10.77,10.69M97.55,25.36c0-3.33,1.73-5.18,5.02-5.18.57,0,1.19.08,1.77.25h.08v-4.77c-.53-.21-1.23-.33-2.01-.33-2.47,0-4.11,1.52-5.06,3.99v-3.74h-4.89v20.55h5.1v-10.77h0ZM63.71,32.23c3.45,0,5.38-2.67,5.38-6.41s-1.93-6.37-5.38-6.37-5.3,2.67-5.3,6.37,1.81,6.41,5.3,6.41M87.02,36.54c-4.73,0-7.4-2.18-7.4-7.11v-9.7h-5.67v10.32c0,1.52.58,2.14,1.81,2.14.29,0,.62,0,.99-.08h.12v4.03c-.49.12-1.48.25-2.22.25-2.8,0-4.52-1.07-5.26-3.41-1.48,2.3-3.82,3.58-6.74,3.58-5.22,0-9.45-4.07-9.45-10.73s4.23-10.65,9.45-10.65c2.59,0,4.73.99,6.21,2.8V7.77h5.1v7.81h5.67v-4.89h5.1v4.89h5.47v4.15h-5.47v9.45c0,2.06,1.03,3.04,3,3.04.9,0,1.52-.08,2.34-.29h.12v4.19c-.99.26-2.18.42-3.17.42M0,36.13h5.06l.95-17.72.21-4.81h.08l1.07,4.81,4.11,17.72h6.33l4.15-17.72,1.03-4.81h.08l.21,4.81.99,17.72h5.26l-1.74-28.36h-8.39l-3.78,17.02-.82,4.32h-.08l-.86-4.32-3.79-17.02H1.69l-1.69,28.36ZM51.26,25.49c0,.99-.08,2.01-.25,2.84h-14.8c.53,2.47,2.63,3.99,6.58,3.99h.09c.25,0,.49,0,.73-.02.13,0,.26-.02.39-.03.1,0,.2-.02.3-.03,1.64-.17,3.2-.61,4.64-1.28.11-.05.23-.11.34-.16h0c.29-.15.57-.31.85-.47h.13v4.16c-2.17,1.31-4.7,2.07-7.42,2.07h0c-.1,0-.2,0-.3,0-7.44,0-11.51-4.23-11.51-10.4,0-6.62,4.19-10.98,10.28-10.98,6.09-.01,9.95,4.31,9.95,10.31ZM46.41,24.34c-.25-3.08-1.85-4.89-5.1-4.89-3,0-4.85,1.89-5.18,4.89h10.28Z" style="fill: #170f5f; stroke-width: 0px;"/>
    <g>
      <path d="M204.21,32.34l.07-.75c.11.03.21.05.33.05s.22-.02.29-.06c.07-.04.13-.09.18-.17.05-.07.1-.18.15-.32l.17-.44-1.49-3.51h.96l.97,2.56h0l.86-2.56h.91l-1.64,4.25c-.09.23-.18.41-.29.55s-.24.25-.41.33c-.17.07-.37.11-.62.11-.16.02-.31,0-.45-.04Z" style="fill: #170f5f; stroke-width: 0px;"/>
      <path d="M208.85,30.54c-.28-.15-.5-.36-.67-.63-.16-.28-.24-.6-.24-.96s.08-.69.24-.97c.16-.28.38-.5.66-.66.28-.15.59-.23.94-.23.33,0,.62.07.87.21s.45.36.59.64c.14.28.21.63.21,1.03,0,.1,0,.18,0,.23h-2.64c0,.16.06.3.16.43.09.13.21.23.36.31s.31.11.47.11c.4,0,.71-.15.92-.45l.58.46c-.34.46-.84.7-1.49.7-.35,0-.67-.08-.95-.22ZM210.59,28.57c0-.15-.03-.3-.09-.42-.06-.13-.15-.23-.28-.3-.12-.07-.27-.11-.45-.11-.17,0-.32.04-.47.11-.14.07-.26.17-.35.3-.09.13-.14.27-.15.43h1.79Z" style="fill: #170f5f; stroke-width: 0px;"/>
      <path d="M212.7,30.63c-.2-.07-.36-.19-.5-.35-.13-.16-.2-.37-.2-.62,0-.46.22-.78.67-.94s1.01-.24,1.7-.24h.02v-.09c0-.2-.07-.36-.22-.47-.15-.11-.34-.17-.57-.17-.18,0-.35.04-.52.11-.17.08-.31.17-.43.29l-.45-.53c.19-.18.42-.31.68-.41.26-.09.52-.14.79-.14.57,0,.96.14,1.2.42.23.28.35.63.35,1.04v2.11h-.81v-.44h-.02c-.09.15-.23.28-.42.38-.2.1-.41.15-.66.15-.2.01-.41-.02-.61-.1ZM214.16,29.85c.16-.16.24-.38.24-.66v-.12h-.2c-.37,0-.68.04-.94.12-.26.08-.39.23-.39.46,0,.15.06.27.18.33.12.07.26.1.43.1.3,0,.53-.07.68-.23Z" style="fill: #170f5f; stroke-width: 0px;"/>
      <path d="M216.24,27.83v-.68h.83v.58h0c.1-.21.23-.37.41-.5.18-.12.38-.18.6-.18.08,0,.15.01.21.02v.8c-.1-.02-.19-.04-.27-.04-.24,0-.43.06-.57.17-.14.11-.24.24-.29.38-.05.14-.08.27-.08.39v1.89h-.87v-2.83h.02Z" style="fill: #170f5f; stroke-width: 0px;"/>
      <path d="M219.09,30.61c-.26-.1-.47-.24-.63-.42l.57-.54c.1.13.22.24.38.32s.33.12.51.12c.15,0,.28-.03.39-.1s.17-.17.17-.31c0-.09-.03-.17-.09-.22-.06-.06-.14-.11-.25-.15-.11-.04-.26-.08-.46-.13-.2-.05-.38-.11-.53-.18s-.27-.17-.36-.3-.14-.3-.14-.5c0-.25.07-.45.2-.62s.3-.29.51-.37c.21-.08.44-.12.68-.12.26,0,.51.05.75.14s.42.22.56.39l-.57.5c-.08-.11-.19-.2-.33-.27s-.28-.11-.43-.11-.29.03-.39.09c-.11.06-.16.16-.16.28,0,.09.03.16.08.21.06.05.13.1.23.13.1.03.25.07.44.12.33.08.6.19.81.35.21.15.32.38.32.69,0,.27-.07.49-.2.66-.13.17-.3.3-.52.38s-.46.12-.73.12c-.28,0-.55-.06-.81-.16Z" style="fill: #170f5f; stroke-width: 0px;"/>
    </g>
  </g>
  <g id="Layer_2" data-name="Layer 2">
    <polygon points="182.51 3.98 182.51 6.02 201.37 6.02 185.2 42.56 187.03 43.48 204.5 4.01 182.51 3.98" style="fill: #170f5f; stroke-width: 0px;"/>
    <polygon points="182.64 .13 182.64 2.18 206.38 2.18 206.38 5.07 189.59 42.56 191.43 43.48 208.39 5.31 208.39 .17 182.64 .13" style="fill: #170f5f; stroke-width: 0px;"/>
    <g style="opacity: .56;">
      <path d="M190.57,42.24c4.84-10.9,11.58-26.16,16.43-36.85-.07.55.07-3.96.05-3.84l.8.04-.28,3.94v.06c-2.7,6.18-5.39,12.36-8.14,18.52l-8.18,18.44-.68-.31h0Z" style="fill: #1010eb; stroke-width: 0px;"/>
    </g>
    <g style="opacity: .56;">
      <polygon points="204.22 4.24 182.79 4.2 182.79 4.99 201.99 5.5 186.06 42.06 186.51 42.26 204.06 4.21 204.22 4.24" style="fill: #1010eb; stroke-width: 0px;"/>
    </g>
    <g style="opacity: .56;">
      <polygon points="182.72 .18 182.74 1.34 207.88 1.58 207.85 .56 182.72 .18" style="fill: #1010eb; stroke-width: 0px;"/>
    </g>
    <g>
      <line x1="186.22" y1="42.36" x2="203.06" y2="4.67" style="fill: none; stroke-width: 0px;"/>
      <polygon points="186.33 42.41 186.1 42.31 202.95 4.62 203.18 4.72 186.33 42.41" style="fill: #1010eb; stroke-width: 0px;"/>
    </g>
    <polygon points="190.89 42.82 190.66 42.72 207.19 5.39 207.42 5.5 190.89 42.82" style="fill: #1010eb; stroke-width: 0px;"/>
    <polygon points="207.42 5.47 207.17 5.47 207.25 .77 207.5 .77 207.42 5.47" style="fill: #1010eb; stroke-width: 0px;"/>
    <rect x="186.53" y="4.82" width="13.17" height=".15" style="fill: #1010eb; stroke-width: 0px;"/>
    <rect x="187.06" y="1.01" width="17.44" height=".15" style="fill: #1010eb; stroke-width: 0px;"/>
    <g style="opacity: .92;">
      <path d="M202.84,4.51h-.15.15s-3.4-.4-9.59-.4c0,0-5.27,0-8.34.23h-.43l-1.52-.04v.5s19.1-.05,19.1-.05h-.47s1.25,0,1.25,0h0c.07,0,.12-.06.12-.12s-.05-.12-.12-.12Z" style="fill: #fff; stroke-width: 0px;"/>
    </g>
    <g style="opacity: .92;">
      <path d="M207.34.67h-.18.18s-4.17-.46-11.77-.46c0,0-6.46,0-10.24.27h-.53l-1.86-.04v.58s23.44-.05,23.44-.05h-.57s1.53,0,1.53,0h0c.08,0,.15-.06.15-.14,0-.09-.07-.16-.15-.16Z" style="fill: #fff; stroke-width: 0px;"/>
    </g>
    <path d="M222.73,44.83c-3.08,0-5.8-.73-8.08-2.16-2.27-1.43-4.06-3.45-5.32-6.01l1.74-.86c1.1,2.23,2.65,3.99,4.61,5.22s4.33,1.86,7.05,1.86c2.54,0,4.81-.56,6.76-1.68,1.94-1.1,3.46-2.66,4.54-4.62,1.08-1.97,1.62-4.24,1.62-6.74s-.54-4.51-1.61-6.34c-1.07-1.82-2.57-3.26-4.46-4.27-2.65-1.41-5.92-1.85-9.38-1.32-.94.15-1.82.37-2.63.66l-1.33.48.35-15.3h18.38v1.94h-16.49l-.24,10.65c.53-.14,1.09-.25,1.66-.34,3.89-.61,7.57-.09,10.59,1.52,2.22,1.18,3.98,2.87,5.23,5s1.88,4.59,1.88,7.32-.63,5.41-1.86,7.67c-1.25,2.28-3.02,4.08-5.28,5.37-2.26,1.3-4.85,1.95-7.73,1.95ZM222.49,41.17c-2,0-3.87-.57-5.56-1.7-1.63-1.08-2.87-2.55-3.69-4.35l-.09-.2,1.78-.78.08.17-.88.41.88-.4c.67,1.47,1.68,2.66,3,3.55,1.39.92,2.85,1.37,4.49,1.37s3.2-.39,4.54-1.17c1.34-.77,2.4-1.85,3.16-3.21.76-1.36,1.15-2.91,1.15-4.58,0-1.83-.4-3.45-1.2-4.83s-1.88-2.41-3.3-3.14c-2.49-1.28-5.82-1.42-9.09-.55-1.4.37-2.76.92-4.07,1.63l-1.46.79.46-24.18h22.28v1.94h-20.39l-.36,19.03c.99-.44,2-.8,3.03-1.08,1.55-.41,3.12-.62,4.65-.62,2.16,0,4.11.44,5.82,1.32,1.74.89,3.11,2.2,4.09,3.89.97,1.68,1.46,3.63,1.46,5.8,0,2.01-.47,3.87-1.39,5.53-.93,1.66-2.23,2.99-3.88,3.94-1.64.94-3.49,1.42-5.51,1.42Z" style="fill: #170f5f; stroke-width: 0px;"/>
    <g style="opacity: .56;">
      <path d="M222.68,44.26c-2.98,0-5.59-.7-7.78-2.07-2.18-1.37-3.9-3.32-5.11-5.78l.72-.35c1.14,2.33,2.76,4.16,4.82,5.45,2.05,1.29,4.53,1.95,7.35,1.95,2.63,0,5-.59,7.04-1.75,2.03-1.16,3.63-2.79,4.75-4.84,1.12-2.06,1.69-4.42,1.69-7.02s-.57-4.71-1.69-6.62c-1.12-1.92-2.7-3.43-4.69-4.49-2.76-1.47-6.15-1.93-9.74-1.38-.97.15-1.89.39-2.73.69l-.55.2.32-13.92h17.82v.8h-17.02l-.27,11.98c.73-.23,1.51-.41,2.33-.54,3.77-.58,7.33-.09,10.24,1.46,2.12,1.13,3.81,2.74,5,4.79,1.19,2.04,1.8,4.41,1.8,7.03s-.6,5.22-1.79,7.4c-1.19,2.19-2.9,3.92-5.06,5.15-2.17,1.24-4.67,1.86-7.45,1.86ZM222.45,40.6c-1.88,0-3.65-.54-5.24-1.6-1.54-1.03-2.71-2.41-3.49-4.12l-.08-.19.73-.32.08.18-.36.17.37-.17c.71,1.57,1.79,2.84,3.2,3.78,1.46.98,3.08,1.47,4.8,1.47s3.39-.42,4.82-1.25c1.43-.83,2.56-1.98,3.37-3.42.81-1.45,1.22-3.08,1.22-4.86,0-1.93-.43-3.65-1.28-5.12-.84-1.46-2.03-2.59-3.53-3.36-1.51-.77-3.26-1.17-5.19-1.17-1.42,0-2.86.19-4.3.58-1.44.38-2.85.95-4.2,1.68l-.6.33.43-22.65h21.73v.8h-20.95l-.39,20.5c1.22-.61,2.48-1.09,3.77-1.43,1.51-.4,3.02-.6,4.51-.6,2.06,0,3.93.42,5.56,1.26,1.64.84,2.94,2.08,3.86,3.67s1.38,3.45,1.38,5.52c0,1.91-.45,3.68-1.32,5.25-.88,1.57-2.11,2.83-3.67,3.73-1.56.88-3.32,1.34-5.23,1.34Z" style="fill: #1010eb; stroke-width: 0px;"/>
    </g>
    <path d="M222.68,43.99c-2.92,0-5.49-.68-7.63-2.03-2.14-1.34-3.82-3.25-5.01-5.67l.22-.11c1.17,2.37,2.82,4.24,4.92,5.56,2.1,1.32,4.62,1.99,7.5,1.99,2.68,0,5.1-.6,7.18-1.79,2.08-1.18,3.71-2.85,4.86-4.94,1.15-2.1,1.73-4.5,1.73-7.15s-.58-4.8-1.73-6.76-2.76-3.5-4.8-4.59c-2.04-1.09-4.38-1.64-6.94-1.64-.97,0-1.97.08-2.97.23-.99.16-1.93.39-2.78.7l-.17.06v-.18l.3-13.06h17.55v.25h-17.31l-.29,12.64c.82-.29,1.72-.51,2.66-.65,1.01-.16,2.02-.24,3-.24,2.61,0,4.98.56,7.06,1.67s3.72,2.69,4.89,4.69,1.76,4.32,1.76,6.89-.59,5.13-1.76,7.27-2.84,3.84-4.95,5.04c-2.1,1.21-4.56,1.82-7.29,1.82ZM222.45,40.32c-1.83,0-3.54-.52-5.09-1.56-1.5-1-2.63-2.34-3.39-4h0c-.03-.06-.06-.13-.08-.19l.23-.1c.03.06.05.12.08.18l-.11.05.12-.05c.73,1.62,1.84,2.93,3.3,3.9,1.51,1.01,3.17,1.52,4.95,1.52s3.49-.43,4.96-1.28,2.64-2.04,3.47-3.53c.83-1.49,1.25-3.17,1.25-4.99,0-1.98-.44-3.75-1.31-5.26s-2.09-2.67-3.64-3.47c-1.55-.79-3.34-1.2-5.32-1.2-1.44,0-2.91.2-4.37.59-1.46.39-2.89.96-4.26,1.7l-.19.1v-.21l.42-21.69h21.46v.25h-21.21l-.41,21.23c1.33-.7,2.71-1.25,4.12-1.62,1.48-.4,2.97-.6,4.44-.6,2.02,0,3.85.41,5.43,1.23,1.59.82,2.85,2.02,3.75,3.56.89,1.55,1.35,3.36,1.35,5.38,0,1.87-.43,3.59-1.29,5.11-.85,1.53-2.05,2.75-3.56,3.62-1.53.89-3.24,1.33-5.1,1.33Z" style="fill: #1010eb; stroke-width: 0px;"/>
    <polygon points="210.96 36.07 209.97 36.56 211.2 36.49 210.96 36.07" style="fill: #fff; stroke-width: 0px;"/>
    <polygon points="214.66 34.41 213.68 34.9 214.91 34.84 214.66 34.41" style="fill: #fff; stroke-width: 0px;"/>
    <path d="M213.48,40.5c3.54,2.43,8.07,3.22,12.27,2.48,4.27-.67,7.74-3.77,10.02-7.34-1.4,2.93-3.77,5.54-6.75,6.96-4.95,2.26-11.39,1.45-15.54-2.1h0Z" style="fill: #fff; stroke-width: 0px;"/>
    <path d="M215.21,36.23c4.87,5.1,12.45,4.05,16.39-1.59-3.11,6.46-12.16,7.53-16.39,1.59h0Z" style="fill: #fff; stroke-width: 0px;"/>
    <path d="M214.26,21.25l.5.68s7.49-4.22,13.94.5c-.01,0-5.05-5.09-14.44-1.18Z" style="fill: #fff; stroke-width: 0px;"/>
    <path d="M218.27,16.55l.38.75s8.07-2.97,13.68,2.72c.01,0-4.15-5.83-14.06-3.47Z" style="fill: #fff; stroke-width: 0px;"/>
    <path d="M217.07,4.22s-.27,3.95.14,11.03l.23-10.67,16.85-.18s-6.05-.68-17.22-.18Z" style="fill: #fff; stroke-width: 0px;"/>
    <path d="M212.96.44s-.33,9.3.17,17.59l.28-17.16,20.65-.21s-7.41-.81-21.1-.22Z" style="fill: #fff; stroke-width: 0px;"/>
  </g>
</svg>