<svg xmlns="http://www.w3.org/2000/svg" xmlns:xlink="http://www.w3.org/1999/xlink" width="111" height="25" viewBox="0 0 111 25">
    <defs>
        <path id="prefix__a" d="M0 0L111 0 111 25 0 25z"/>
    </defs>
    <g fill="none" fill-rule="evenodd">
        <mask id="prefix__b" fill="#fff">
            <use xlink:href="#prefix__a"/>
        </mask>
        <path fill="#1D2C4F" d="M110.474 2.47c0-.84-.577-1.532-1.394-1.532h-.01c-.785 0-1.371.692-1.371 1.532 0 .86.586 1.533 1.403 1.533.795.01 1.372-.673 1.372-1.533zm.526 0c0 1.1-.845 1.985-1.898 1.985-1.074 0-1.925-.886-1.925-1.985 0-1.096.85-1.975 1.925-1.975h.005c1.048 0 1.893.879 1.893 1.975zm-1.605-.352c0-.172-.126-.26-.35-.26-.09 0-.203.02-.203.02v.485h.17c.216 0 .383-.06.383-.245zm.598 1.339h-.5c-.063-.086-.098-.238-.144-.434-.04-.203-.135-.299-.338-.299h-.188v.733h-.445V1.553c.136-.021.369-.054.693-.054.346 0 .507.054.652.145.096.072.179.213.179.414 0 .187-.167.367-.386.441v.022c.184.057.27.203.34.469.056.275.1.38.137.467zm-8.514 4.411v12.034c0 3.934-1.894 5.08-1.894 5.08s.346.018.829.018c3.615 0 4.761-2.485 4.761-6.253V2.297c-3.387 1.291-3.696 3.01-3.696 5.571zm-5.492 6.418c0 7.093-1.005 7.352-1.585 7.352-.576 0-1.492-.519-1.492-6.953 0-5.766.872-6.639 1.491-6.871.739-.277 1.586-.007 1.586 6.472zM94.303 5.7c-1.77.304-5.084 1.388-5.084 8.926 0 8.41 3.44 9.144 5.088 9.144 1.657 0 5.38-.384 5.38-9.656 0-8.47-3.273-8.775-5.384-8.414zm2.35-4.539L92.31 5.216c3.59-.902 4.593-.902 4.344-4.054zM84.238 10.52c0-2.28-.527-2.98-2.222-3.137v5.502c1.324.442 2.222.098 2.222-2.365zm4.419 12.704s-2.301-.3-2.838-.526c-1.352-.568-1.679-2.1-1.788-3.287-.283-3.08-.681-4.175-2.016-4.47v6.954l-3.557-.72V4.945s2.224.3 3.45.52c3.762.673 5.86 1.387 5.86 4.795 0 3.943-3.195 4.02-3.195 4.02 1.02.25 2.55.97 2.937 4.456.122 1.1.687 4.175 1.147 4.488zM73.182 12.352c0 4.672-.4 5.245-1.57 5.245-.465 0-.72-.17-.72-.17V5.117c2.105.566 2.29 2.163 2.29 7.235zM67.337 2.297v16.445s.808.21 1.82.486c1.178.323 2.238.641 3.65.641 2.125 0 4.116-1.471 4.1-7.166-.016-5.948-1.008-8.067-5.902-9.464-1.038-.296-3.668-.942-3.668-.942zM57.989.644v2.16c1.091.116 2.224.263 3.385.434l-3.654 14.01c2.367.222 4.93.636 7.607 1.16l-.001-2.236c-1.151-.233-2.262-.437-3.307-.597L65.646 1.92C62.953 1.35 60.398.922 57.99.644zM51.636 0c-2.907 0-4.97 2.78-4.97 8.26 0 6.274 2.247 9.127 4.536 9.127 1.462 0 2.4-.777 2.4-.777v-2.297s-.459.697-1.39.697c-1.508 0-1.914-3.728-1.914-6.575 0-5.027.992-6.376 1.963-6.376.743 0 1.166.676 1.166.676V.403S52.641 0 51.636 0zM39.132 2.314v16.382c2.275-.492 4.687-.895 7.189-1.24l-.001-2.197-3.526.61v-5.351c1.332-.144 2.007-1.216 2.029-2.547l-2.03.37V3.582s.935-.226 1.707-.39c.806-.172 1.567-1.118 1.695-2.278-2.384.335-4.697.806-7.063 1.399zm-2.372.456c-1.791.526-3.677 1.11-3.677 4.03l-.001 13.167 3.68-.806-.002-16.39zM9.228 4.953l3.039 11.822v6.606c1.192-.077 2.48-.19 3.664-.314l-.002-6.448 2.437-8.218 2.217 14.034 1.672-.28 2.513-8.793 1.91 7.954 1.906-.395L31.32 7.008c.132-.672.434-2.194 1.135-3.017-1.231.339-2.194.32-2.703 2.961-.534 2.769-1.33 7.172-1.33 7.172L26.644 5.44l-1.57.316-2.21 9.236-1.196-8.937-2.368.2c-2.064.176-2.42 1.137-3.02 3.213-.37 1.284-1.193 4.252-1.193 4.252L13.23 5.758c-1.41-.22-2.747-.486-4.002-.805zM7.97 4.69l-1.175 7.924 1.51.281v2.168l-1.78-.326-.867 6.117c.923.099 2.138.13 3.533.122l.03 2.484c-3.227.011-4.876-.025-8.044-.427L2.44 13.92C1.02 13.56.292 12.586.416 11.077c.553.202 1.498.477 2.324.714l.935-6.23C.453 4.438-.053 3.31.005 1.4c2.44 1.283 5.198 2.433 7.965 3.29z" mask="url(#prefix__b)"/>
    </g>
</svg>
