<svg version="1.2" xmlns="http://www.w3.org/2000/svg" viewBox="0 0 100 141" width="100" height="141"><style>.a{fill:#264de4}.b{fill:#2965f1}.c{fill:#ebebeb}.d{fill:#fff}</style><path class="a" d="m99.9 27.7l-9.1 102-40.8 11.3-40.7-11.3-9-102z"/><path class="b" d="m83.1 123.2l7.7-87.2h-40.7v96.3z"/><path class="c" d="m21.1 73.9l1.1 12.5h27.9v-12.5z"/><path class="c" d="m50.1 48.6h-31.3l1.2 12.5h30.1z"/><path class="c" d="m50.1 119.4v-13.1l-0.1 0.1-13.8-3.8-0.9-10h-6.8-5.8l1.8 19.7 25.5 7.1z"/><path  d="m23.7 0h15.1v6.3h-8.8v6.4h8.8v6.3h-15.1z"/><path  d="m41.9 0h15.1v5.5h-8.8v1.1h8.8v12.7h-15.1v-5.8h8.8v-1.1h-8.8z"/><path  d="m60 0h15.1v5.5h-8.8v1.1h8.8v12.7h-15.1v-5.8h8.8v-1.1h-8.8z"/><path class="d" d="m65.4 86.4l-1.4 16.2-13.9 3.8v13l25.5-7.1 0.2-2.2 3-32.9 0.3-3.3 2.2-25.3h-31.2v12.5h17.5l-1.1 12.8h-16.4v12.5z"/></svg>