<svg version="1.2" xmlns="http://www.w3.org/2000/svg" viewBox="0 0 100 149" width="100" height="149"><style>.a{fill:#0acf83}.b{fill:#a259ff}.c{fill:#f24e1e}.d{fill:#ff7262}.e{fill:#1abcfe}</style><path class="a" d="m25.2 149c13.7 0 24.8-11.1 24.8-24.8v-24.9h-24.8c-13.6 0-24.7 11.2-24.7 24.9 0 13.7 11.1 24.8 24.7 24.8z"/><path class="b" d="m0.5 74.5c0-13.7 11.1-24.8 24.7-24.8h24.8v49.6h-24.8c-13.6 0-24.7-11.1-24.7-24.8z"/><path class="c" d="m0.5 24.8c0-13.7 11.1-24.8 24.7-24.8h24.8v49.7h-24.8c-13.6 0-24.7-11.2-24.7-24.9z"/><path class="d" d="m50 0h24.8c13.6 0 24.7 11.1 24.7 24.8 0 13.7-11.1 24.9-24.7 24.9h-24.8z"/><path class="e" d="m74.8 99.3c-13.7 0-24.8-11.1-24.8-24.8 0-13.7 11.1-24.8 24.8-24.8 13.6 0 24.7 11.1 24.7 24.8 0 13.7-11.1 24.8-24.7 24.8z"/></svg>