<svg version="1.2" xmlns="http://www.w3.org/2000/svg" viewBox="0 0 100 100" width="100" height="100"><style>.a{fill:#e44d26}.b{fill:#f16529}.c{fill:#ebebeb}.d{fill:#fff}</style><path  d="m21.2 0h4.5v4.5h4.1v-4.5h4.5v13.5h-4.5v-4.5h-4.1v4.5h-4.5m19-9h-3.9v-4.5h12.4v4.5h-4v9h-4.5m10.5-13.5h4.7l2.9 4.7 2.9-4.7h4.7v13.5h-4.5v-6.7l-3.2 4.8-3.1-4.8v6.7h-4.4m17.4-13.5h4.5v9h6.4v4.5h-10.9"/><path class="a" d="m21 92l-6.4-72.4h70.8l-6.4 72.4-29.1 8"/><path class="b" d="m50 93.8v-68.2h29l-5.6 61.7"/><path class="c" d="m27.7 34.4h22.3v8.9h-12.5l0.8 9.1h11.7v8.8h-19.8m0.3 4.5h9l0.6 7.1 9.9 2.6v9.3l-18.2-5.1"/><path class="d" d="m72.2 34.4h-22.2v8.9h21.4m-0.8 9.1h-20.6v8.8h10.9l-1 11.6-9.9 2.6v9.2l18.1-5"/></svg>