<svg version="1.2" xmlns="http://www.w3.org/2000/svg" viewBox="0 0 100 14" width="100" height="14"><defs><linearGradient id="P" gradientUnits="userSpaceOnUse"/><linearGradient id="g1" x2="1" href="#P" gradientTransform="matrix(-2.179,2.178,-1.2,-1.2,5.839,3.605)"><stop stop-color="#0052cc"/><stop offset="1" stop-color="#2684ff"/></linearGradient><linearGradient id="g2" x2="1" href="#P" gradientTransform="matrix(2.175,-2.175,1.195,1.195,7.498,10.366)"><stop stop-color="#0052cc"/><stop offset="1" stop-color="#2684ff"/></linearGradient></defs><style>.a{fill:#253858}.b{fill:#2684ff}.c{fill:url(#g1)}.d{fill:url(#g2)}</style><path fill-rule="evenodd" class="a" d="m61.1 1.3v1.2q-0.4-0.1-0.8-0.1c-0.8 0-1.2 0.5-1.2 1.2v0.8h2v1.2h-2v6.4h-1.2v-6.4h-1.2v-1.2h1.2v-0.8c0-1.5 0.8-2.4 2.4-2.4q0.4 0 0.8 0.1zm-38.3 0.2c0.2-0.1 0.5 0 0.6 0.2 0.2 0.2 0.3 0.4 0.3 0.7 0 0.3-0.2 0.6-0.5 0.8-0.2 0.1-0.6 0.1-0.9 0-0.2-0.2-0.4-0.5-0.4-0.8 0-0.3 0.1-0.5 0.2-0.7q0.3-0.2 0.6-0.2 0 0 0.1 0zm24.4 1.1v1.3c-1-0.5-2-0.7-3.1-0.7-1.3 0-2.1 0.4-2.1 1.4 0 0.8 0.7 1.2 2.4 1.6 2.1 0.6 3.3 1.2 3.3 3-0.1 1.8-1.1 3-3.5 3-1.9 0-2.8-0.4-3.6-0.8v-1.4c1 0.5 2.4 0.8 3.7 0.8 1.4 0 2-0.6 2-1.5 0-0.8-0.5-1.3-2.4-1.8-2.2-0.5-3.2-1.3-3.2-2.9 0-1.6 1.2-2.8 3.4-2.8 1.5 0 2.4 0.4 3.1 0.8zm-26.9-0.6v7c0 1.8-0.7 3.1-2.6 3.1q-0.8 0-1.6-0.3v-1.3q0.7 0.2 1.4 0.2c1.1 0 1.5-0.7 1.5-1.7v-7c0 0 1.3 0 1.3 0zm43.9 0.8v1.6h2v1.2h-2v4c0 0.7 0.4 1.1 1.2 1.1q0.4 0 0.8-0.1v1.3q-0.4 0.1-0.8 0.1c-1.6 0-2.4-1-2.4-2.4v-4h-1.2v-1.2h1.2v-1.6zm35.3 5.4v0.6h-5.4c0.2 1.3 1 2.1 2.7 2.1q1.2 0 2.3-0.4v1.2c-0.6 0.3-1.5 0.5-2.3 0.5-2.8 0-4-1.7-4-4 0-2.3 1.2-4 3.5-4 2.3 0 3.2 1.7 3.2 4zm-64.3-2.5v-1.3h1.3v7.6h-1.3v-1.4c-0.4 1-1.3 1.6-2.5 1.6-2 0-3-1.8-3-4 0-2.2 1.1-4 3.2-4 1.1 0 1.9 0.5 2.3 1.5zm20.6 2.5c0 2.3-1.3 4-3.5 4-2.2 0-3.6-1.7-3.6-4 0-2.3 1.3-4 3.6-4 2.2 0 3.5 1.7 3.5 4zm29.3-2.5v-1.3h1.3v7.6h-1.3v-1.4c-0.4 1-1.3 1.6-2.5 1.6-2 0-3-1.8-3-4 0-2.2 1.1-4 3.2-4 1.1 0 1.9 0.5 2.3 1.5zm-55.9-1.4v1.3c-1.6-0.2-2.6 0.3-2.6 1.9v4.5h-1.3v-7.6h1.3v1.3c0.4-0.8 1.1-1.4 2.3-1.4q0.2 0 0.3 0zm63.1 0v1.3c-1.7-0.2-2.7 0.3-2.7 1.9v4.5h-1.2v-7.6h1.2v1.3c0.4-0.8 1.1-1.4 2.4-1.4q0.1 0 0.3 0zm-24.4 0.1l2.2 6.4 2.2-6.4h1.2l2.2 6.4 2.1-6.4h1.5l-2.8 7.6h-1.6l-1.3-3.7-0.7-2.3-0.7 2.3-1.3 3.7h-1.6l-2.8-7.6zm-44.6 0v7.6h-1.2v-7.6zm70.7 3.2v0.1h4.1c0-1.5-0.7-2.3-2-2.3-1.3 0-2 0.9-2.1 2.2zm-63.1 0.6c0 1.8 0.7 2.7 2 2.7 1.2 0 2.2-0.7 2.2-2.4v-0.6c0-1.7-0.9-2.5-2-2.5-1.5 0-2.2 1-2.2 2.8zm49.9 0c0 1.8 0.7 2.7 2.1 2.7 1.1 0 2.1-0.7 2.1-2.4v-0.6c0-1.7-0.9-2.5-2-2.5-1.4 0.1-2.2 1-2.2 2.8zm-30.9 0c0 1.4 0.7 2.7 2.3 2.7 1.6 0 2.2-1.3 2.2-2.7 0-1.5-0.6-2.7-2.2-2.7-1.6 0-2.3 1.2-2.3 2.7z"/><path fill-rule="evenodd" class="b" d="m12.7 7.4l-6 6.2-2.3-2.4-3.8-3.8c-0.2-0.2-0.2-0.6 0-0.8l6.1-6.2 0.5 0.6 5.5 5.6c0.2 0.2 0.2 0.6 0 0.8zm-4.1-0.4l-1.9-1.9-1.9 1.9 1.9 1.9z"/><path class="c" d="m6.7 5.1c-1.3-1.3-1.3-3.4-0.1-4.6l-4.1 4.2 2.2 2.3z"/><path class="d" d="m8.6 7l-1.9 1.9c0.6 0.6 0.9 1.5 0.9 2.3 0 0.9-0.3 1.7-0.9 2.4l4.1-4.3z"/></svg>