<svg version="1.2" xmlns="http://www.w3.org/2000/svg" viewBox="0 0 100 100" width="100" height="100"><defs><linearGradient id="P" gradientUnits="userSpaceOnUse"/><radialGradient id="g1" cx="0" cy="0" r="1" href="#P" gradientTransform="matrix(69.391,0,0,69.391,34.369,26.774)"><stop stop-color="#34364e" stop-opacity=".98"/><stop offset="1" stop-color="#0c0824" stop-opacity="1"/></radialGradient></defs><style>.a{fill:url(#g1)}.b{fill:#31c5f0}</style><path class="a" d="m4.3 6.8h91.3v88.9h-91.3z"/><path fill-rule="evenodd" class="b" d="m0.1 2.7h99.6v97.1h-99.6zm4.2 93h91.3v-88.8h-91.3zm63-53.1c-3.3 0-4.4 1.6-4.4 3 0 1.5 0.7 2.5 5.1 4.8 6.6 3.2 8.6 6.2 8.6 10.6 0 6.7-5.1 10.2-11.9 10.2-3.6 0-6.8-0.7-8.5-1.7-0.3-0.2-0.4-0.4-0.4-0.7v-6.1c0-0.4 0.2-0.6 0.5-0.4 2.6 1.7 5.6 2.5 8.4 2.5 3.2 0 4.6-1.4 4.6-3.2 0-1.5-0.9-2.9-5.1-5-5.9-2.8-8.4-5.7-8.4-10.5 0-5.3 4.2-9.8 11.5-9.8 3.6 0 6.1 0.5 7.4 1.2 0.3 0.2 0.4 0.5 0.4 0.8v5.7c0 0.3-0.2 0.5-0.6 0.4-1.8-1.1-4.5-1.8-7.2-1.8zm-43.1-17.1c0-0.3 0.6-0.5 0.9-0.5 2.7-0.2 6.6-0.2 10.7-0.2 11.5 0 16 6.3 16 14.3 0 10.5-7.6 15.1-17 15.1-1.6 0-2.1-0.1-3.3-0.1v15.9c0 0.4-0.1 0.5-0.5 0.5h-6.3c-0.3 0-0.5-0.1-0.5-0.5zm7.4 22.1c1 0 1.7 0 3.4 0 4.8 0 9.4-1.7 9.4-8.3 0-5.2-3.3-7.9-8.8-7.9-1.7 0-3.3 0.1-4 0.1z"/></svg>