<svg width="112" height="112" viewBox="0 0 112 112" fill="none" xmlns="http://www.w3.org/2000/svg">
<rect width="112" height="112" rx="30" fill="#2A2927"/>
<path d="M42.1838 44.105L38.9167 32.9412H32.208V50.5554H35.8432V36.4149L40.1628 50.5554H43.4816L47.9627 36.3116V50.5554H52.1274V32.9412H45.5478L42.1838 44.105Z" fill="#FDF7E7"/>
<path d="M44.1144 72.4506L36.9538 61.39H32.208V79.0043H35.8432V66.8525L43.6947 79.0301H47.7496V61.39H44.1144V72.4506Z" fill="#FDF7E7"/>
<path d="M79.4079 61.4031H75.2949L71.6081 67.0012L68.1084 61.4031H63.4918L69.0641 70.1585L62.9365 79.0173H67.127L71.1819 72.8898L74.9785 79.0173H79.6468L73.7001 69.6807L79.4079 61.4031Z" fill="#FDF7E7"/>
<path d="M79.634 46.933H62.9883V50.5553H79.634V46.933Z" fill="#FDF7E7"/>
</svg>
